<svg width="70" height="56" viewBox="0 0 70 56" fill="none" xmlns="http://www.w3.org/2000/svg">
<path d="M13 29.9696C14.6214 25.6912 44.9639 32.1261 46.2729 28.9033" stroke="#78BDB3" stroke-opacity="0.77" stroke-width="26" stroke-linejoin="round"/>
<path d="M12.72 28.09C11.52 28.09 10.92 27.76 10.92 27.1V7.9C10.92 7.24 11.52 6.91 12.72 6.91H13.77C14.97 6.91 15.57 7.24 15.57 7.9V27.1C15.57 27.76 14.97 28.09 13.77 28.09H12.72ZM21.3661 28.06C20.1661 28.06 19.5661 27.74 19.5661 27.1V7.9C19.5661 7.26 20.1661 6.94 21.3661 6.94H22.6561C23.1361 6.94 23.5361 7 23.8561 7.12C24.1761 7.22 24.4361 7.43 24.6361 7.75L31.3861 18.16C31.7861 18.74 32.1461 19.33 32.4661 19.93L32.5861 19.9C32.5461 19.44 32.5261 18.76 32.5261 17.86V7.9C32.5261 7.26 33.1261 6.94 34.3261 6.94H35.1961C36.3961 6.94 36.9961 7.26 36.9961 7.9V27.1C36.9961 27.74 36.3961 28.06 35.1961 28.06H34.0561C33.5761 28.06 33.1761 28.01 32.8561 27.91C32.5361 27.79 32.2761 27.57 32.0761 27.25L25.1761 16.69C24.7761 16.11 24.4161 15.52 24.0961 14.92L23.9761 14.95C24.0161 15.41 24.0361 16.09 24.0361 16.99V27.1C24.0361 27.74 23.4361 28.06 22.2361 28.06H21.3661ZM10.89 48.12C10.49 48.12 10.29 48.01 10.29 47.79V39.435C10.29 38.775 10.26 38.305 10.2 38.025C10.14 37.735 10.11 37.575 10.11 37.545C10.11 37.425 10.205 37.34 10.395 37.29C10.585 37.23 10.76 37.2 10.92 37.2C11.06 37.2 11.16 37.275 11.22 37.425C11.29 37.565 11.34 37.715 11.37 37.875C11.41 38.035 11.435 38.14 11.445 38.19C12.165 37.44 12.96 37.065 13.83 37.065C14.44 37.065 14.96 37.24 15.39 37.59C15.83 37.93 16.165 38.405 16.395 39.015C16.625 39.615 16.74 40.305 16.74 41.085C16.74 41.935 16.61 42.66 16.35 43.26C16.1 43.86 15.745 44.315 15.285 44.625C14.825 44.935 14.295 45.09 13.695 45.09C13.255 45.09 12.865 45.025 12.525 44.895C12.195 44.765 11.87 44.575 11.55 44.325V47.79C11.55 48.01 11.35 48.12 10.95 48.12H10.89ZM13.41 43.98C14.07 43.98 14.57 43.74 14.91 43.26C15.25 42.78 15.42 42.09 15.42 41.19C15.42 40.22 15.26 39.475 14.94 38.955C14.62 38.425 14.165 38.16 13.575 38.16C13.235 38.16 12.885 38.25 12.525 38.43C12.175 38.61 11.85 38.865 11.55 39.195V43.305C12.09 43.755 12.71 43.98 13.41 43.98ZM21.9036 45.09C20.7736 45.09 19.9086 44.75 19.3086 44.07C18.7186 43.39 18.4236 42.405 18.4236 41.115C18.4236 39.815 18.7236 38.815 19.3236 38.115C19.9236 37.415 20.7836 37.065 21.9036 37.065C23.0036 37.065 23.8436 37.415 24.4236 38.115C25.0136 38.805 25.3086 39.805 25.3086 41.115C25.3086 42.415 25.0186 43.405 24.4386 44.085C23.8686 44.755 23.0236 45.09 21.9036 45.09ZM21.8586 44.01C22.5886 44.01 23.1286 43.775 23.4786 43.305C23.8286 42.825 24.0036 42.085 24.0036 41.085C24.0036 40.085 23.8286 39.345 23.4786 38.865C23.1286 38.385 22.5886 38.145 21.8586 38.145C21.1286 38.145 20.5936 38.385 20.2536 38.865C19.9136 39.335 19.7436 40.075 19.7436 41.085C19.7436 42.085 19.9136 42.825 20.2536 43.305C20.5936 43.775 21.1286 44.01 21.8586 44.01ZM29.1122 45.03C28.7522 45.03 28.5522 44.95 28.5122 44.79L26.5322 37.68C26.4822 37.53 26.4572 37.43 26.4572 37.38C26.4572 37.21 26.6872 37.125 27.1472 37.125C27.5072 37.125 27.7072 37.205 27.7472 37.365L29.0072 42.165C29.0372 42.255 29.0722 42.41 29.1122 42.63C29.1522 42.84 29.1822 43 29.2022 43.11L29.3522 43.89H29.4122C29.5722 43 29.6872 42.42 29.7572 42.15L31.0022 37.38C31.0422 37.21 31.2372 37.125 31.5872 37.125H31.6922C32.0422 37.125 32.2372 37.21 32.2772 37.38L33.5372 42.15C33.6472 42.59 33.7272 42.975 33.7772 43.305C33.8372 43.625 33.8772 43.83 33.8972 43.92H33.9272L34.0322 43.29C34.1422 42.72 34.2172 42.35 34.2572 42.18L35.5172 37.365C35.5572 37.205 35.7622 37.125 36.1322 37.125C36.5322 37.125 36.7322 37.21 36.7322 37.38C36.7322 37.43 36.7172 37.5 36.6872 37.59L34.6772 44.79C34.6372 44.95 34.4372 45.03 34.0772 45.03H33.6272C33.2772 45.03 33.0822 44.95 33.0422 44.79L31.8422 40.035C31.8122 39.915 31.7422 39.52 31.6322 38.85H31.6022C31.4922 39.48 31.4222 39.87 31.3922 40.02L30.1622 44.79C30.1222 44.95 29.9222 45.03 29.5622 45.03H29.1122ZM53.5623 45.03C53.1623 45.03 52.9623 44.92 52.9623 44.7V39.435C52.9623 38.775 52.9323 38.305 52.8723 38.025C52.8123 37.735 52.7823 37.575 52.7823 37.545C52.7823 37.425 52.8773 37.34 53.0673 37.29C53.2573 37.23 53.4323 37.2 53.5923 37.2C53.7323 37.2 53.8323 37.275 53.8923 37.425C53.9623 37.565 54.0123 37.715 54.0423 37.875C54.0823 38.035 54.1073 38.14 54.1173 38.19C54.6473 37.44 55.2273 37.065 55.8573 37.065C56.1473 37.065 56.3623 37.115 56.5023 37.215C56.6523 37.305 56.7273 37.45 56.7273 37.65C56.7273 37.82 56.6973 38 56.6373 38.19C56.5773 38.37 56.5073 38.46 56.4273 38.46C56.3773 38.46 56.2773 38.435 56.1273 38.385C55.9873 38.325 55.8123 38.295 55.6023 38.295C55.3423 38.295 55.0923 38.385 54.8523 38.565C54.6123 38.735 54.4023 38.95 54.2223 39.21V44.7C54.2223 44.92 54.0223 45.03 53.6223 45.03H53.5623Z" fill="white"/>
<path d="M40.895 44.815C40.3757 44.815 39.888 44.682 39.432 44.416C38.976 44.1373 38.615 43.7637 38.349 43.295C38.083 42.8263 37.95 42.3007 37.95 41.718C37.95 41.11 38.083 40.5717 38.349 40.103C38.6277 39.6217 39.0013 39.248 39.47 38.982C39.9387 38.7033 40.4643 38.564 41.047 38.564C41.7183 38.564 42.3327 38.7603 42.89 39.153C43.4473 39.533 44.011 40.0713 44.581 40.768L45.018 40.312C45.5753 39.7293 46.0693 39.2923 46.5 39.001C46.9433 38.7097 47.4753 38.564 48.096 38.564C48.9573 38.564 49.6603 38.849 50.205 39.419C50.7623 39.9763 51.041 40.7047 51.041 41.604C51.041 42.2373 50.8953 42.801 50.604 43.295C50.3253 43.7763 49.9517 44.15 49.483 44.416C49.027 44.682 48.533 44.815 48.001 44.815C47.431 44.815 46.8673 44.644 46.31 44.302C45.7527 43.9473 45.1447 43.371 44.486 42.573C43.878 43.295 43.3017 43.8523 42.757 44.245C42.225 44.625 41.6043 44.815 40.895 44.815ZM41.047 43.675C41.5663 43.675 42.054 43.4977 42.51 43.143C42.966 42.7757 43.422 42.3133 43.878 41.756C42.9533 40.35 41.978 39.647 40.952 39.647C40.4073 39.647 39.964 39.8433 39.622 40.236C39.2927 40.6287 39.128 41.1227 39.128 41.718C39.128 42.2627 39.3053 42.725 39.66 43.105C40.0273 43.485 40.4897 43.675 41.047 43.675ZM48.058 43.675C48.59 43.675 49.0207 43.4787 49.35 43.086C49.6793 42.6807 49.844 42.2247 49.844 41.718C49.844 41.0847 49.673 40.5843 49.331 40.217C48.989 39.837 48.5457 39.647 48.001 39.647C47.545 39.647 47.1143 39.8053 46.709 40.122C46.3163 40.4387 45.8033 40.9453 45.17 41.642C45.816 42.3893 46.3417 42.915 46.747 43.219C47.1523 43.523 47.5893 43.675 48.058 43.675Z" fill="white"/>
</svg>
